<mxfile host="app.diagrams.net" modified="2023-11-09T13:25:49.235Z" agent="Mozilla/5.0 (Windows NT 10.0; Win64; x64) AppleWebKit/537.36 (KHTML, like Gecko) Chrome/119.0.0.0 Safari/537.36" etag="Dw75B3VVo92ect8FedPu" version="22.1.0" type="github">
  <diagram name="第 1 页" id="Z7_LiqJT6VRr32ZiYmep">
    <mxGraphModel dx="1562" dy="845" grid="1" gridSize="10" guides="1" tooltips="1" connect="1" arrows="1" fold="1" page="1" pageScale="1" pageWidth="827" pageHeight="1169" math="0" shadow="0">
      <root>
        <mxCell id="0" />
        <mxCell id="1" parent="0" />
        <mxCell id="Xl0Ga1pmbO1RNWtwwPbQ-1" value="" style="rounded=1;whiteSpace=wrap;html=1;" vertex="1" parent="1">
          <mxGeometry x="90" y="207" width="600" height="80" as="geometry" />
        </mxCell>
        <mxCell id="Xl0Ga1pmbO1RNWtwwPbQ-2" value="Web" style="rounded=0;whiteSpace=wrap;html=1;" vertex="1" parent="1">
          <mxGeometry x="160" y="229.5" width="120" height="35" as="geometry" />
        </mxCell>
        <mxCell id="Xl0Ga1pmbO1RNWtwwPbQ-3" value="Python SDK" style="rounded=0;whiteSpace=wrap;html=1;" vertex="1" parent="1">
          <mxGeometry x="500" y="229.5" width="120" height="35" as="geometry" />
        </mxCell>
        <mxCell id="Xl0Ga1pmbO1RNWtwwPbQ-4" value="" style="rounded=1;whiteSpace=wrap;html=1;" vertex="1" parent="1">
          <mxGeometry x="90" y="310" width="600" height="240" as="geometry" />
        </mxCell>
        <mxCell id="Xl0Ga1pmbO1RNWtwwPbQ-5" value="数据支撑服务" style="rounded=0;whiteSpace=wrap;html=1;verticalAlign=top;" vertex="1" parent="1">
          <mxGeometry x="110" y="330" width="260" height="210" as="geometry" />
        </mxCell>
        <mxCell id="Xl0Ga1pmbO1RNWtwwPbQ-7" value="新&lt;br&gt;地&lt;br&gt;震&lt;br&gt;协&lt;br&gt;议&lt;br&gt;解&lt;br&gt;析" style="rounded=0;whiteSpace=wrap;html=1;" vertex="1" parent="1">
          <mxGeometry x="120" y="360" width="40" height="170" as="geometry" />
        </mxCell>
        <mxCell id="Xl0Ga1pmbO1RNWtwwPbQ-8" value="数&lt;br&gt;据&lt;br&gt;存&lt;br&gt;储" style="rounded=0;whiteSpace=wrap;html=1;" vertex="1" parent="1">
          <mxGeometry x="170" y="360" width="40" height="170" as="geometry" />
        </mxCell>
        <mxCell id="Xl0Ga1pmbO1RNWtwwPbQ-9" value="事&lt;br&gt;件&lt;br&gt;存&lt;br&gt;储&lt;br&gt;和&lt;br&gt;管&lt;br&gt;理" style="rounded=0;whiteSpace=wrap;html=1;" vertex="1" parent="1">
          <mxGeometry x="220" y="360" width="40" height="170" as="geometry" />
        </mxCell>
        <mxCell id="Xl0Ga1pmbO1RNWtwwPbQ-10" value="手&lt;br&gt;动&lt;br&gt;事&lt;br&gt;件&lt;br&gt;检&lt;br&gt;测" style="rounded=0;whiteSpace=wrap;html=1;" vertex="1" parent="1">
          <mxGeometry x="270" y="360" width="40" height="170" as="geometry" />
        </mxCell>
        <mxCell id="Xl0Ga1pmbO1RNWtwwPbQ-11" value="受&lt;br&gt;限&lt;br&gt;时&lt;br&gt;间&lt;br&gt;段&lt;br&gt;管&lt;br&gt;理" style="rounded=0;whiteSpace=wrap;html=1;" vertex="1" parent="1">
          <mxGeometry x="320" y="360" width="40" height="170" as="geometry" />
        </mxCell>
        <mxCell id="Xl0Ga1pmbO1RNWtwwPbQ-12" value="数据获取服务" style="rounded=0;whiteSpace=wrap;html=1;verticalAlign=top;" vertex="1" parent="1">
          <mxGeometry x="390" y="330" width="160" height="210" as="geometry" />
        </mxCell>
        <mxCell id="Xl0Ga1pmbO1RNWtwwPbQ-13" value="波&lt;br&gt;形&lt;br&gt;数&lt;br&gt;据&lt;br&gt;获&lt;br&gt;取" style="rounded=0;whiteSpace=wrap;html=1;" vertex="1" parent="1">
          <mxGeometry x="400" y="360" width="40" height="170" as="geometry" />
        </mxCell>
        <mxCell id="Xl0Ga1pmbO1RNWtwwPbQ-14" value="站&lt;br&gt;点&lt;br&gt;信&lt;br&gt;息&lt;br&gt;获&lt;br&gt;取" style="rounded=0;whiteSpace=wrap;html=1;" vertex="1" parent="1">
          <mxGeometry x="450" y="360" width="40" height="170" as="geometry" />
        </mxCell>
        <mxCell id="Xl0Ga1pmbO1RNWtwwPbQ-15" value="事&lt;br&gt;件&lt;br&gt;信&lt;br&gt;息&lt;br&gt;获&lt;br&gt;取" style="rounded=0;whiteSpace=wrap;html=1;" vertex="1" parent="1">
          <mxGeometry x="500" y="360" width="40" height="170" as="geometry" />
        </mxCell>
        <mxCell id="Xl0Ga1pmbO1RNWtwwPbQ-18" value="系统支撑服务" style="rounded=0;whiteSpace=wrap;html=1;verticalAlign=top;" vertex="1" parent="1">
          <mxGeometry x="560" y="330" width="110" height="210" as="geometry" />
        </mxCell>
        <mxCell id="Xl0Ga1pmbO1RNWtwwPbQ-19" value="日&lt;br&gt;志&lt;br&gt;管&lt;br&gt;理" style="rounded=0;whiteSpace=wrap;html=1;" vertex="1" parent="1">
          <mxGeometry x="570" y="360" width="40" height="170" as="geometry" />
        </mxCell>
        <mxCell id="Xl0Ga1pmbO1RNWtwwPbQ-20" value="用&lt;br&gt;户&lt;br&gt;管&lt;br&gt;理" style="rounded=0;whiteSpace=wrap;html=1;" vertex="1" parent="1">
          <mxGeometry x="620" y="360" width="40" height="170" as="geometry" />
        </mxCell>
        <mxCell id="Xl0Ga1pmbO1RNWtwwPbQ-22" value="" style="rounded=1;whiteSpace=wrap;html=1;" vertex="1" parent="1">
          <mxGeometry x="90" y="570" width="600" height="145" as="geometry" />
        </mxCell>
        <mxCell id="Xl0Ga1pmbO1RNWtwwPbQ-24" value="Spring boot" style="rounded=0;whiteSpace=wrap;html=1;" vertex="1" parent="1">
          <mxGeometry x="110" y="585" width="120" height="50" as="geometry" />
        </mxCell>
        <mxCell id="Xl0Ga1pmbO1RNWtwwPbQ-25" value="Spring Cloud" style="rounded=0;whiteSpace=wrap;html=1;" vertex="1" parent="1">
          <mxGeometry x="260" y="585" width="120" height="50" as="geometry" />
        </mxCell>
        <mxCell id="Xl0Ga1pmbO1RNWtwwPbQ-26" value="Kafka" style="rounded=0;whiteSpace=wrap;html=1;" vertex="1" parent="1">
          <mxGeometry x="410" y="585" width="120" height="50" as="geometry" />
        </mxCell>
        <mxCell id="Xl0Ga1pmbO1RNWtwwPbQ-27" value="Nacos" style="rounded=0;whiteSpace=wrap;html=1;" vertex="1" parent="1">
          <mxGeometry x="550" y="585" width="120" height="50" as="geometry" />
        </mxCell>
        <mxCell id="Xl0Ga1pmbO1RNWtwwPbQ-30" value="Flask" style="rounded=0;whiteSpace=wrap;html=1;" vertex="1" parent="1">
          <mxGeometry x="110" y="645" width="120" height="50" as="geometry" />
        </mxCell>
        <mxCell id="Xl0Ga1pmbO1RNWtwwPbQ-31" value="Vue" style="rounded=0;whiteSpace=wrap;html=1;" vertex="1" parent="1">
          <mxGeometry x="260" y="645" width="120" height="50" as="geometry" />
        </mxCell>
        <mxCell id="Xl0Ga1pmbO1RNWtwwPbQ-32" value="Mybatis" style="rounded=0;whiteSpace=wrap;html=1;" vertex="1" parent="1">
          <mxGeometry x="410" y="645" width="120" height="50" as="geometry" />
        </mxCell>
        <mxCell id="Xl0Ga1pmbO1RNWtwwPbQ-33" value="Gateway" style="rounded=0;whiteSpace=wrap;html=1;" vertex="1" parent="1">
          <mxGeometry x="550" y="645" width="120" height="50" as="geometry" />
        </mxCell>
        <mxCell id="Xl0Ga1pmbO1RNWtwwPbQ-34" value="" style="rounded=1;whiteSpace=wrap;html=1;" vertex="1" parent="1">
          <mxGeometry x="90" y="740" width="600" height="80" as="geometry" />
        </mxCell>
        <mxCell id="Xl0Ga1pmbO1RNWtwwPbQ-37" value="MySQL" style="shape=cylinder3;whiteSpace=wrap;html=1;boundedLbl=1;backgroundOutline=1;size=15;" vertex="1" parent="1">
          <mxGeometry x="210" y="750" width="90" height="60" as="geometry" />
        </mxCell>
        <mxCell id="Xl0Ga1pmbO1RNWtwwPbQ-38" value="TDengine" style="shape=cylinder3;whiteSpace=wrap;html=1;boundedLbl=1;backgroundOutline=1;size=15;" vertex="1" parent="1">
          <mxGeometry x="480" y="750" width="90" height="60" as="geometry" />
        </mxCell>
        <mxCell id="Xl0Ga1pmbO1RNWtwwPbQ-39" value="" style="rounded=1;whiteSpace=wrap;html=1;" vertex="1" parent="1">
          <mxGeometry x="90" y="851" width="600" height="80" as="geometry" />
        </mxCell>
        <mxCell id="Xl0Ga1pmbO1RNWtwwPbQ-42" value="" style="rounded=0;whiteSpace=wrap;html=1;" vertex="1" parent="1">
          <mxGeometry x="140" y="861" width="120" height="60" as="geometry" />
        </mxCell>
        <mxCell id="Xl0Ga1pmbO1RNWtwwPbQ-43" value="采集设备" style="rounded=0;whiteSpace=wrap;html=1;" vertex="1" parent="1">
          <mxGeometry x="150" y="871" width="100" height="40" as="geometry" />
        </mxCell>
        <mxCell id="Xl0Ga1pmbO1RNWtwwPbQ-44" value="" style="rounded=0;whiteSpace=wrap;html=1;" vertex="1" parent="1">
          <mxGeometry x="330" y="861" width="120" height="60" as="geometry" />
        </mxCell>
        <mxCell id="Xl0Ga1pmbO1RNWtwwPbQ-45" value="采集设备" style="rounded=0;whiteSpace=wrap;html=1;" vertex="1" parent="1">
          <mxGeometry x="340" y="871" width="100" height="40" as="geometry" />
        </mxCell>
        <mxCell id="Xl0Ga1pmbO1RNWtwwPbQ-46" value="" style="rounded=0;whiteSpace=wrap;html=1;" vertex="1" parent="1">
          <mxGeometry x="520" y="861" width="120" height="60" as="geometry" />
        </mxCell>
        <mxCell id="Xl0Ga1pmbO1RNWtwwPbQ-47" value="采集设备" style="rounded=0;whiteSpace=wrap;html=1;" vertex="1" parent="1">
          <mxGeometry x="530" y="871" width="100" height="40" as="geometry" />
        </mxCell>
        <mxCell id="Xl0Ga1pmbO1RNWtwwPbQ-49" value="Text" style="text;html=1;strokeColor=none;fillColor=none;align=center;verticalAlign=middle;whiteSpace=wrap;rounded=0;" vertex="1" parent="1">
          <mxGeometry x="380" y="710" width="60" height="30" as="geometry" />
        </mxCell>
        <mxCell id="Xl0Ga1pmbO1RNWtwwPbQ-51" value="展现层" style="text;html=1;strokeColor=none;fillColor=none;align=center;verticalAlign=middle;whiteSpace=wrap;rounded=0;" vertex="1" parent="1">
          <mxGeometry x="20" y="232" width="60" height="30" as="geometry" />
        </mxCell>
        <mxCell id="Xl0Ga1pmbO1RNWtwwPbQ-52" value="应用层" style="text;html=1;strokeColor=none;fillColor=none;align=center;verticalAlign=middle;whiteSpace=wrap;rounded=0;" vertex="1" parent="1">
          <mxGeometry x="20" y="430" width="60" height="30" as="geometry" />
        </mxCell>
        <mxCell id="Xl0Ga1pmbO1RNWtwwPbQ-53" value="技术层" style="text;html=1;strokeColor=none;fillColor=none;align=center;verticalAlign=middle;whiteSpace=wrap;rounded=0;" vertex="1" parent="1">
          <mxGeometry x="20" y="620" width="60" height="30" as="geometry" />
        </mxCell>
        <mxCell id="Xl0Ga1pmbO1RNWtwwPbQ-54" value="数据库层" style="text;html=1;strokeColor=none;fillColor=none;align=center;verticalAlign=middle;whiteSpace=wrap;rounded=0;" vertex="1" parent="1">
          <mxGeometry x="20" y="765" width="60" height="30" as="geometry" />
        </mxCell>
        <mxCell id="Xl0Ga1pmbO1RNWtwwPbQ-55" value="基础设备" style="text;html=1;strokeColor=none;fillColor=none;align=center;verticalAlign=middle;whiteSpace=wrap;rounded=0;" vertex="1" parent="1">
          <mxGeometry x="20" y="876" width="60" height="30" as="geometry" />
        </mxCell>
      </root>
    </mxGraphModel>
  </diagram>
</mxfile>
